PathFileType	4	(X/Y/Z)	57_2_71_p1_0-393.trc
DataRate	CameraRate	NumFrames	NumMarkers	Units	OrigDataRate	OrigDataStartFrame	OrigNumFrames
59.0	59.0	5	27	m	59.0	197	394
Frame#	Time	RHip			RKnee			RAnkle			RBigToe			RSmallToe			RHeel			LHip			LKnee			LAnkle			LBigToe			LSmallToe			LHeel			Neck			Head			Nose			RShoulder			RElbow			RWrist			RThumb			RIndex			RPinky			LShoulder			LElbow			LWrist			LThumb			LIndex			LPinky			
		X1	Y1	Z1	X2	Y2	Z2	X3	Y3	Z3	X4	Y4	Z4	X5	Y5	Z5	X6	Y6	Z6	X7	Y7	Z7	X8	Y8	Z8	X9	Y9	Z9	X10	Y10	Z10	X11	Y11	Z11	X12	Y12	Z12	X13	Y13	Z13	X14	Y14	Z14	X15	Y15	Z15	X16	Y16	Z16	X17	Y17	Z17	X18	Y18	Z18	X19	Y19	Z19	X20	Y20	Z20	X21	Y21	Z21	X22	Y22	Z22	X23	Y23	Z23	X24	Y24	Z24	X25	Y25	Z25	X26	Y26	Z26	X27	Y27	Z27	
197	3.3389830508474576	0.2498088363449644	0.6142239457920918	0.988529719137203	0.24361450330046847	0.7041289254055848	1.3874893504584211	0.23857040630638468	0.9039943317729282	1.7757572502798833	0.22748447308000533	0.6484951401076295	1.7961921756742498	0.29318331361113253	0.7070579092379818	1.8000295347802011	0.2433654972522998	0.9995915192317273	1.8146902489741104	0.03591137328208797	0.6020443272736655	0.9961821043891718	0.06643330679051777	0.7194492539411304	1.3846016061411335	0.07445603942927549	0.8898824788434075	1.7797349896149826	0.08412351936502628	0.6740907511313	1.8052878559656165	0.02777793850887964	0.7451279970761937	1.8204422760701688	0.09460217765367473	0.937259160498596	1.8174702003562764	0.13049410644265025	0.4279718499458347	0.4331743350100943	0.12076766787200188	0.32139270849219703	0.22071812665785698	0.12707087074777948	0.2945920831458137	0.3516091854792312	0.2970505686239253	0.430495161753356	0.5187995724594016	0.31932983650887625	0.49558361143958907	0.7818440535235747	0.23864125051723778	0.41538061807747373	1.0020398233126857	0.178604991728333	0.402027044036662	1.0944566263181683	0.17092203072647885	0.431470503737403	1.1038360388326043	0.16958043911907295	0.45908440843434384	1.098889162603344	-0.019783655149667515	0.45149933346924837	0.5253291204649505	-0.029347817555462764	0.4640423485033477	0.7992113162069473	0.11528622077562532	0.4352503500853727	1.0082002242669033	0.19286181839321206	0.47232828613550826	1.0848065370558433	0.17634046896638253	0.42065377294170764	1.0965442878790392	0.14634652059333508	0.4532614924884747	1.0995454540639276
198	3.3559322033898304	0.24981830936718286	0.6142497256821828	0.9885788706924379	0.2436175064979565	0.7042840391940478	1.387492363238915	0.23854560580414208	0.9042926553497794	1.7758671959425123	0.22872505243512958	0.6515757422443419	1.8004003286917076	0.29324409105667576	0.7070504032313598	1.8001027327598145	0.24463619664370262	1.0033161767883934	1.819523069686967	0.03591122533037048	0.6020799841021008	0.9961898498328369	0.06644877564821305	0.7191512064466602	1.3845935951009816	0.07446541583207737	0.8900430901170839	1.7798262317348181	0.08413156712748912	0.6741009455662587	1.805302239806529	0.032361503059943175	0.7470751634582767	1.8207427654667372	0.09369120855265621	0.9393880051143002	1.8229959417608352	0.13052841871263549	0.42799325451487885	0.4332014878132511	0.1246484087861142	0.30960677587386365	0.22328412603927156	0.12705193140599086	0.2944530855236433	0.351673617752399	0.2970484298681683	0.43044859300341753	0.518861940178975	0.319358628516299	0.49564856398052176	0.7818816881543723	0.2386347516989428	0.41538422123545504	1.0020634421057035	0.17833819045628685	0.40196230734779237	1.0943931865808365	0.1693687810961653	0.429361615960628	1.0972803022302415	0.16938265645808506	0.4590172872825423	1.0988382801522214	-0.01976403403313289	0.45165099447967394	0.5253063195656011	-0.029296189488541013	0.4641721689866535	0.7991117473788967	0.11170110420774407	0.4233443003611791	1.0044509074927364	0.17394566440561215	0.4205575215976684	1.0822563807062642	0.1761493461132996	0.42065606115875287	1.0965232207810884	0.14630367954103402	0.4531770635067792	1.0995030799422214
199	3.3728813559322033	0.24983363457848387	0.6141028360941925	0.9884416787147388	0.24368571903683367	0.7044797788073659	1.3875902818126442	0.2386211037771715	0.9040820491580681	1.7757218781430961	0.23220751819426558	0.6652329275426031	1.8040474743188741	0.2932455179703561	0.7068362955638161	1.8001401681615568	0.23924843968547205	0.9834575639704972	1.8106816824902845	0.03549506798716701	0.6033114901340496	0.9998284655422245	0.06641933553404097	0.719092232950632	1.3845764968124776	0.07448600837002366	0.8899595359526216	1.7796747392133319	0.08495444974380179	0.6726056651345156	1.801042981917685	0.032324789746881195	0.7472235304337937	1.8207207297575376	0.09447024674179307	0.936182282718145	1.8171892677754724	0.1305003757410952	0.42790686390445726	0.43319448315938824	0.12073781975630533	0.3211897035995373	0.22071608235327908	0.1270340880547936	0.2944994506029431	0.35162810084781665	0.2970080676353215	0.43038487407422577	0.5189280838245477	0.3193728449331411	0.49563522068495747	0.781922778934674	0.2386000843483653	0.4153662753640268	1.0020538296268093	0.1784023187312393	0.4013571193544224	1.0942590145527085	0.16970698196663442	0.42833261215466634	1.0998059468824641	0.16934461831163133	0.45833199405819697	1.0987433503615123	-0.019773791744244172	0.45160991969636305	0.5253295934818454	-0.029340417874579524	0.4640409863045995	0.7992507574990833	0.11169897257146531	0.42324569547668406	1.0044281390524827	0.1739010184608495	0.4196172543041556	1.082146492536721	0.1720595213555005	0.43303572381959765	1.0974655803462159	0.14251789559380648	0.441744119385197	1.0990188352714485
200	3.389830508474576	0.25364169552993404	0.5994521359549172	0.9877919297603902	0.24780100320018286	0.7189495974038477	1.389643789901823	0.23861137002639862	0.9039865177137999	1.7757557414283307	0.2321986972284312	0.6650876460509804	1.803995705837558	0.29452927692286773	0.709919783375583	1.8049253685515623	0.24050506533339303	0.9868111472979653	1.8154206449996941	0.035476803656845926	0.6032456989430002	0.9998155742385468	0.06645699828966013	0.7192861564347597	1.3846886953307909	0.07448656710910614	0.8899724481908478	1.7796635690209852	0.08498929833522322	0.6725421205260087	1.8010438353852278	0.03240913502514137	0.746918237058511	1.8206429199010274	0.09443707531574745	0.9367150447464563	1.817316907538695	0.13049206064612792	0.42785726714127287	0.4332018374724698	0.12460101744246382	0.3094299217933182	0.22329977584012858	0.12704122246306748	0.29449554323317184	0.3516320924615755	0.2970380495630984	0.4304243806994995	0.5189243471005045	0.31970336733292026	0.49570468474707907	0.7856262755960154	0.2386201920753991	0.4152844061870275	1.0020958182003807	0.17856659032085137	0.4020375410218508	1.0944171271397811	0.17001781968708513	0.4294231532736403	1.1000462521684884	0.16946751727096515	0.4588978862505686	1.0988331178375566	-0.0197748273988158	0.45159046162444866	0.5253360431177864	-0.029318407862146855	0.4641018327191337	0.7991766690949238	0.11170639145245326	0.42332617967354413	1.0044623028543858	0.1743684401635324	0.4206285208815659	1.0820764216913643	0.17261474268372579	0.43433339405042093	1.0977479011320963	0.14268268353395494	0.4420936804326202	1.0991596966282262
201	3.406779661016949	0.25404761411444077	0.5992858338147282	0.991400546757417	0.2436414038108686	0.7044760106237771	1.3878771377702295	0.23858727276960284	0.9040335504171817	1.7758026488525203	0.2288270733830426	0.6517365558330901	1.8004058736161144	0.2946217613783571	0.7100482349420307	1.8048521787691734	0.2404948478817926	0.9869413330121208	1.8154978541347484	0.03547450495667801	0.6032064294502851	0.9997957077497419	0.06646491118876534	0.7194748729491045	1.384722543882124	0.07447434272688569	0.8901055384296227	1.7797901863314483	0.08414157613033416	0.674147313164442	1.805317128157524	0.032329824617606556	0.7471959013294466	1.8207615859294985	0.094498911956726	0.9367863895824272	1.8173685903768428	0.13048285637537502	0.42784540937217297	0.4331984071190567	0.12459497539500547	0.30937048446690324	0.22327656513513822	0.1270263940041769	0.2943656450786262	0.35167281753585855	0.2970078815450267	0.4304354639297288	0.5189465903719644	0.3196609495133274	0.49565615241741245	0.785632894419023	0.23862889818128175	0.4152861176202556	1.0021657176016023	0.17878021343321424	0.4018414845474718	1.0944831645408362	0.17035826570920046	0.42924096133779216	1.10020971176076	0.1697119536905958	0.4589104064346345	1.0989571058484429	-0.019785590716040434	0.4516095518936368	0.5253436511821824	-0.029334112460621016	0.4641974619266759	0.7991643969304036	0.11212705074664782	0.4230818378241508	1.008137922440365	0.17510880515784233	0.4211495294059513	1.0849119612749447	0.17323825433165163	0.4349122916286022	1.0979993955555851	0.1464875894085401	0.45326335047024296	1.099860520788543
